# AST/ASF file generated using VICON BodyLanguage
# -----------------------------------------------
:version 1.10
:name VICON
:units
  mass 1.0
  length 0.45
  angle deg
:documentation
   .ast/.asf automatically generated from VICON data using
   VICON BodyBuilder and BodyLanguage model FoxedUp or BRILLIANT.MOD
:root
   order TX TY TZ RX RY RZ
   axis XYZ
   position 0 0 0  
   orientation 0 -0 0 
:bonedata
  begin
     id 1 
     name lhipjoint
     direction 0.500677 -0.737119 0.453848 
     length 2.34727 
     axis 0 -0 0  XYZ
  end
  begin
     id 2 
     name lfemur
     direction 0.34202 -0.939693 0  
     length 7.53653  
     axis 0 -0 20  XYZ
    dof rx ry rz
    limits (-160.0 20.0)
           (-70.0 70.0)
           (-60.0 70.0)
  end
  begin
     id 3 
     name ltibia
     direction 0.34202 -0.939693 0   
     length 6.85572   
     axis 0 -0 20   XYZ
    dof rx
    limits (-10.0 170.0)
  end
  begin
     id 4 
     name lfoot
     direction 0.155313 -0.426718 0.890949   
     length 2.18324   
     axis -90 -1.13533e-015 20   XYZ
    dof rx rz
    limits (-45.0 90.0)
           (-70.0 20.0)
  end
  begin
     id 5 
     name ltoes
     direction 1.53474e-011 -4.21647e-011 1   
     length 1.06748   
     axis -90 -1.13533e-015 20   XYZ
    dof rx
    limits (-90.0 20.0)
  end
  begin
     id 6 
     name rhipjoint
     direction -0.632471 -0.659587 0.406111   
     length 2.62319  
     axis 0 -0 0  XYZ 
  end
  begin
     id 7 
     name rfemur
     direction -0.34202 -0.939693 0   
     length 7.21735   
     axis 0 -0 -20   XYZ
    dof rx ry rz
    limits (-160.0 20.0)
           (-70.0 70.0)
           (-70.0 60.0)
  end
  begin
     id 8 
     name rtibia
     direction -0.34202 -0.939693 0   
     length 7.02558   
     axis 0 -0 -20   XYZ
    dof rx
    limits (-10.0 170.0)
 end
 begin
     id 9 
     name rfoot
     direction -0.16057 -0.441164 0.882945   
     length 2.10014  
     axis -90 1.13533e-015 -20   XYZ
    dof rx rz
    limits (-45.0 90.0)
           (-20.0 70.0)
  end
  begin
     id 10 
     name rtoes
     direction -1.53553e-011 -4.2192e-011 1   
     length 1.02554   
     axis -90 1.13533e-015 -20   XYZ
    dof rx
    limits (-90.0 20.0)
  end
  begin
     id 11 
     name lowerback
     direction 0.0401429 0.998861 -0.0258085   
     length 1.80848   
     axis 0 -0 0   XYZ
    dof rx ry rz
    limits (-20.0 45.0)
           (-30.0 30.0)
           (-30.0 30.0)
  end
  begin
     id 12 
     name upperback
     direction -0.0130978 0.999914 -0.000352645   
     length 1.8116   
     axis 0 -0 0   XYZ
    dof rx ry rz
    limits (-20.0 45.0)
           (-30.0 30.0)
           (-30.0 30.0)
  end
  begin
     id 13 
     name thorax
     direction -0.0300198 0.999453 0.0138573   
     length 1.81778   
     axis 0 -0 0   XYZ
    dof rx ry rz
    limits (-20.0 45.0)
           (-30.0 30.0)
           (-30.0 30.0)
  end
  begin
     id 14 
     name lowerneck
     direction -0.0401726 0.999191 -0.00173647   
     length 2.10594   
     axis 0 -0 0   XYZ
    dof rx ry rz
    limits (-20.0 45.0)
           (-30.0 30.0)
           (-30.0 30.0)
  end
  begin
     id 15 
     name upperneck
     direction 0.0119835 0.998501 0.0534085   
     length 2.07325   
     axis 0 -0 0   XYZ
    dof rx ry rz
    limits (-20.0 45.0)
           (-30.0 30.0)
           (-30.0 30.0)
  end
  begin
     id 16
     name head
     direction 0.00628309 0.999826 0.0175921  
     length 2.15096  
     axis 0 -0 0   XYZ
    dof rx ry rz
    limits (-20.0 45.0)
           (-30.0 30.0)
           (-30.0 30.0)
  end
  begin
     id 17 
     name lclavicle
     direction 0.895501 0.429681 -0.115981  
     length 4.18092  
     axis 0 -0 0   XYZ
    dof ry rz
    limits (-20.0 10.0)
           (0.0 20.0)
  end
  begin
     id 18 
     name lhumerus
     direction 1 -4.48961e-011 -3.38433e-028   
     length 5.77237   
     axis 180 -30 -90   XYZ
    dof rx ry rz
    limits (-60.0 90.0)
           (-90.0 90.0)
           (-90.0 90.0)
  end
  begin
     id 19
     name lradius
     direction 1 -4.4901e-011 1.11983e-026   
     length 2.91878   
     axis 180 -30 -90   XYZ
    dof rx
    limits (-10.0 170.0)
  end
  begin
     id 20
     name lwrist
     direction 1 -4.48934e-011 1.88176e-026   
     length 1.45939   
     axis -1.23311e-014 90 90   XYZ
    dof ry
    limits (-180.0 0.0)
 end
  begin
     id 21 
     name lhand
     direction 1 -4.4895e-011 3.76352e-026   
     length 1.06566   
     axis -2.40147e-014 90 90   XYZ
    dof rx rz
    limits (-90.0 90.0)
           (-45.0 45.0)
  end
  begin
     id 22 
     name lfingers
     direction 1 -4.49005e-011 7.52705e-026   
     length 0.859162   
     axis -4.80295e-014 90 90   XYZ
    dof rx
    limits (0.0 90.0)
  end
  begin
     id 23
     name lthumb
     direction 0.707107 -6.34885e-011 0.707107   
     length 1.23359   
     axis -90 45 -9.86935e-015   XYZ
    dof rx rz
    limits (-45.0 45.0)
           (-45.0 45.0)
  end
  begin
     id 24 
     name rclavicle
     direction -0.91006 0.40451 -0.0903492   
     length 4.23293  
     axis 0 -0 0   XYZ 
    dof ry rz
    limits (-10.0 20.0)
           (-20.0 0.0)
  end
  begin
     id 25 
     name rhumerus
     direction -1 -4.4897e-011 1.7415e-027  
     length 5.49854   
     axis 180 30 90   XYZ
    dof rx ry rz
    limits (-90.0 60.0)
           (-90.0 90.0)
           (-90.0 90.0)
  end
  begin
     id 26 
     name rradius
     direction -1 -4.48963e-011 1.21259e-026   
     length 3.1186   
     axis 180 30 90   XYZ
    dof rx
    limits (-10.0 170.0)
  end
  begin
     id 27 
     name rwrist
     direction -1 -4.48967e-011 1.88176e-026   
     length 1.5593   
     axis -1.23311e-014 -90 -90   XYZ
    dof ry
    limits (-180.0 0.0)
  end
  begin
     id 28
     name rhand
     direction -1 -4.4895e-011 3.76352e-026   
     length 0.71207   
     axis -2.40147e-014 -90 -90   XYZ
    dof rx rz
    limits (-90.0 90.0)
           (-45.0 45.0)
  end
  begin
     id 29
     name rfingers
     direction -1 -4.49005e-011 7.52705e-026   
     length 0.574089   
     axis -4.80295e-014 -90 -90   XYZ
    dof rx
    limits (0.0 90.0)
  end
  begin
     id 30
     name rthumb
     direction -0.707107 -6.34982e-011 0.707107   
     length 0.824281   
     axis -90 -45 9.86935e-015   XYZ
    dof rx rz
    limits (-45.0 45.0)
           (-45.0 45.0)
  end
:hierarchy
  begin
    root lhipjoint rhipjoint lowerback
    lhipjoint lfemur
    lfemur ltibia
    ltibia lfoot
    lfoot ltoes
    rhipjoint rfemur
    rfemur rtibia
    rtibia rfoot
    rfoot rtoes
    lowerback upperback
    upperback thorax
    thorax lowerneck lclavicle rclavicle
    lowerneck upperneck
    upperneck head
    lclavicle lhumerus
    lhumerus lradius
    lradius lwrist
    lwrist lhand lthumb
    lhand lfingers
    rclavicle rhumerus
    rhumerus rradius
    rradius rwrist
    rwrist rhand rthumb
    rhand rfingers
  end

#!OML:ASF C:\ViconDB\ViconDB\414\Spring2016\042216\male.ASF
:FULLY-SPECIFIED
:DEGREES
438
root 29.1259 17.2495 12.4722 -155.619 82.6566 -150.637
lowerback -2.71018 -3.25682 7.55828
upperback -1.12114 -4.48225 1.3467
thorax -0.114762 -2.24726 -2.92469
lowerneck -7.16679 4.92325 -6.58508
upperneck -3.40632 7.12964 1.28859
head -0.152033 3.67933 1.63026
rclavicle 5.9039e-014 -1.63003e-014
rhumerus -59.8194 6.68401 -86.0476
rradius 104.582
rwrist 1.03156
rhand 8.60175 -15.838
rfingers 7.12502
rthumb 33.799 -42.6661
lclavicle 5.9039e-014 -1.63003e-014
lhumerus -39.15 -13.0439 106.706
lradius 101.005
lwrist 10.3465
lhand -7.14614 2.37676
lfingers 7.12502
lthumb 18.7303 31.495
rfemur -12.9849 -3.47853 25.25
rtibia -3.18055e-015
rfoot 17.1262 2.76798
rtoes -10.5845
lfemur -0.522326 -1.68917 -10.8163
ltibia 92.8983
lfoot -16.7646 16.7092
ltoes -14.8742
439
root 29.5235 17.1314 12.4707 -161.724 82.6124 -155.655
lowerback -1.57814 -3.35601 6.87307
upperback -0.724864 -4.53516 1.08233
thorax -0.31066 -2.27577 -2.76058
lowerneck -6.87441 4.95297 -6.44743
upperneck -3.86377 7.14349 1.38231
head -0.343442 3.695 1.61755
rclavicle 2.98177e-016 -1.07344e-014
rhumerus -57.6921 7.19937 -86.0658
rradius 104.393
rwrist 1.00163
rhand 8.2729 -16.2125
rfingers 7.12502
rthumb 33.4865 -43.1088
lclavicle 2.98177e-016 -1.07344e-014
lhumerus -39.341 -11.6531 105.855
lradius 98.7763
lwrist 9.68139
lhand -6.83378 2.00141
lfingers 7.12502
lthumb 19.0307 31.0904
rfemur -14.7097 -4.8156 24.8012
rtibia 8.69014
rfoot 11.5991 2.92767
rtoes -6.17065
lfemur -1.67538 -1.18842 -10.5405
ltibia 96.3963
lfoot -17.0881 16.9361
ltoes -14.6853
440
root 29.9258 17.0551 12.4707 -159.241 82.4619 -152.304
lowerback -0.839112 -3.30365 7.47832
upperback -0.363035 -4.42792 0.88461
thorax -0.402085 -2.22077 -3.26365
lowerneck -6.19388 5.04411 -5.82265
upperneck -4.78766 7.18878 1.3369
head -0.722833 3.72589 1.45707
rclavicle -7.59854e-014 1.70955e-014
rhumerus -55.3473 7.44726 -86.4481
rradius 103.936
rwrist 1.24327
rhand 7.9325 -16.3058
rfingers 7.12502
rthumb 33.1629 -43.2715
lclavicle -7.59854e-014 1.70955e-014
lhumerus -39.6083 -10.4316 104.77
lradius 96.3124
lwrist 9.15997
lhand -6.90427 1.65944
lfingers 7.12502
lthumb 18.9629 30.7551
rfemur -17.1211 -5.81451 25.5171
rtibia 18.4156
rfoot 5.92887 3.19584
rtoes -4.01009
lfemur -3.02525 -0.404823 -8.97219
ltibia 99.294
lfoot -17.6727 16.4827
ltoes -13.7012
441
root 30.3157 16.9902 12.4891 -159.852 82.4487 -151.95
lowerback 0.155517 -3.22083 7.40364
upperback 0.021655 -4.25161 0.699337
thorax -0.550363 -2.13045 -3.36829
lowerneck -5.39413 5.10158 -5.19933
upperneck -5.96666 7.19056 0.904491
head -1.18448 3.73918 1.17094
rclavicle 3.07619e-014 -1.35174e-014
rhumerus -52.6904 7.74577 -86.7795
rradius 103.072
rwrist 0.752813
rhand 6.63428 -16.7495
rfingers 7.12502
rthumb 31.9275 -43.9699
lclavicle 3.07619e-014 -1.35174e-014
lhumerus -39.7371 -9.11132 103.812
lradius 93.2891
lwrist 8.39717
lhand -7.11121 0.998608
lfingers 7.12502
lthumb 18.7639 30.1136
rfemur -18.1551 -6.29773 25.9068
rtibia 25.1018
rfoot 1.83973 3.52853
rtoes -7.0349
lfemur -4.38267 0.242089 -8.03869
ltibia 101.626
lfoot -18.2004 16.069
ltoes -13.0584
442
root 30.6694 16.9073 12.518 -161.177 82.3766 -152.519
lowerback 2.30098 -3.67859 5.68283
upperback -0.316953 -4.68381 1.39513
thorax -1.95454 -2.37477 -1.53536
lowerneck -4.74434 5.67487 -5.0213
upperneck -6.39888 7.88745 0.23868
head -1.41524 4.09426 0.902637
rclavicle 1.58531e-014 -1.98785e-014
rhumerus -50.218 9.85405 -86.5234
rradius 101.766
rwrist 1.12163
rhand 6.50717 -17.1006
rfingers 7.12502
rthumb 31.8065 -44.3452
lclavicle 1.58531e-014 -1.98785e-014
lhumerus -40.2113 -5.4978 103.047
lradius 89.96
lwrist 7.39046
lhand -7.47321 0.502817
lfingers 7.12502
lthumb 18.4157 29.6511
rfemur -18.7678 -6.4298 26.1813
rtibia 30.3694
rfoot -1.89235 3.30443
rtoes -11.4842
lfemur -6.41879 0.675516 -7.41797
ltibia 103.695
lfoot -19.1608 15.516
ltoes -12.9034
443
root 30.995 16.8105 12.5567 -160.262 82.4673 -151.295
lowerback 2.85264 -3.49132 5.21583
upperback -0.00677687 -4.42303 1.42336
thorax -1.88701 -2.23377 -1.24049
lowerneck -4.74742 5.61966 -4.87501
upperneck -6.90235 7.82091 0.264563
head -1.56826 4.07029 0.878425
rclavicle -4.09496e-014 6.36111e-015
rhumerus -46.5962 10.1361 -86.4078
rradius 99.8772
rwrist 1.60931
rhand 5.72627 -18.1085
rfingers 7.12502
rthumb 31.0625 -45.498
lclavicle -4.09496e-014 6.36111e-015
lhumerus -39.7769 -3.84319 101.703
lradius 86.2617
lwrist 6.70633
lhand -7.56318 0.803874
lfingers 7.12502
lthumb 18.3291 29.9603
rfemur -19.3079 -5.43923 26.3658
rtibia 34.6271
rfoot -4.81274 2.19989
rtoes -9.26389
lfemur -9.20457 1.29503 -6.70539
ltibia 105.443
lfoot -20.4053 14.7082
ltoes -12.8963
